<?xml version="1.0" encoding="utf-8"?>
<!-- Generator: Adobe Illustrator 26.2.0, SVG Export Plug-In . SVG Version: 6.00 Build 0)  -->
<svg version="1.1" id="Laag_1" xmlns="http://www.w3.org/2000/svg" xmlns:xlink="http://www.w3.org/1999/xlink" x="0px" y="0px"
	 viewBox="0 0 247 255.7" style="enable-background:new 0 0 247 255.7;" xml:space="preserve">
<style type="text/css">
	.st0{fill:#F0047F;}
	.st1{fill:#2E58A6;}
	.st2{fill:#F2F2F2;}
	.st3{fill:#80C41C;}
	.st4{fill:#12491D;}
	.st5{fill:#FF0001;}
	.st6{fill:#FFD613;}
	.st7{fill:#40A629;}
	.st8{fill:#393767;}
	.st9{fill:#B75E95;}
	.st10{fill:#4881A0;}
	.st11{fill:#ADACD2;}
</style>
<g>
	<path class="st11" d="M172.9,92.3c8.4-9.5,24.8-10.3,34.1-1.5c1.6,1.5,3.1,3.6,2.9,5.8c-0.2,2.3-2.1,4.1-3.9,5.5
		c-8,6.4-17,11.5-26.6,15.2c12,0.5,24.7,2,34.5,8.9c6.1,4.3,11,12.2,7.8,18.9c-1.7,3.5-5.2,5.7-8.8,7.2c-11.7,4.8-25.9,3.1-36-4.5
		c5.7,2.5,11.4,5.6,15.4,10.4c4,4.8,6.2,11.5,4.4,17.5c-2.9,9.2-14.8,13.4-23.9,10.2s-15.4-12-18.4-21.2c0.9,12.2-2,24.6-8.1,35.2
		c-1.6,2.8-3.8,5.7-7,6.3c-3.5,0.7-6.9-1.6-9.3-4.3c-6.5-7.2-9-17.7-6.4-27c-7.1,10.9-17.3,19.7-29,25.2c-5.9,2.8-13.3,4.6-18.8,1
		c-5.3-3.5-6.8-11.1-4.5-17.1c2.2-6,7.3-10.4,12.7-13.8c-5.8-0.3-11.5,1.7-17.3,2.8c-5.8,1.1-12.2,1-16.8-2.6
		c-7-5.5-6-17.1-0.3-23.9s14.4-10.2,22.7-13.3c-13,0.2-26.6-2.8-36.8-10.9c-3.5-2.8-6.7-6.5-7.5-10.9c-1.3-7.5,4.6-14.5,11.4-17.8
		c10.9-5.4,25-3.8,34.4,3.9C63.7,83.3,61.1,61.9,73.5,50c2.1-2,4.7-3.7,7.6-3.4c2.3,0.3,4.2,1.8,5.9,3.4c6.8,6.5,12,14.6,15.1,23.5
		c1-9,2-18.4,6.7-26.2c4.6-7.8,13.9-13.7,22.7-11.4c4.5,1.2,8.3,4.3,11.5,7.8c6.5,7.2,10.9,17.8,7,26.7c6.4-1.6,12-5.7,18.4-7
		c9.4-1.8,20.1,4,22.1,13.3s-7.4,19.6-16.6,17.2"/>
</g>
</svg>
